<?xml version="1.0" standalone="no"?>
<!DOCTYPE svg PUBLIC "-//W3C//DTD SVG 20010904//EN"
 "http://www.w3.org/TR/2001/REC-SVG-20010904/DTD/svg10.dtd">
<svg version="1.0" xmlns="http://www.w3.org/2000/svg"
 width="1088.000000pt" height="1088.000000pt" viewBox="0 0 1088.000000 1088.000000"
 preserveAspectRatio="xMidYMid meet">
<metadata>
Created by potrace 1.14, written by Peter Selinger 2001-2017
</metadata>
<g transform="translate(0.000000,1088.000000) scale(0.100000,-0.100000)"
fill="#000000" stroke="none">
<path d="M8495 8082 c-2 -2 -41 -5 -87 -7 -132 -6 -245 -17 -305 -29 -15 -3
-48 -8 -73 -11 -25 -4 -85 -15 -135 -26 -49 -11 -99 -22 -110 -24 -62 -14
-294 -92 -389 -132 -185 -78 -434 -215 -521 -286 -5 -4 -35 -26 -65 -48 -170
-126 -377 -337 -518 -529 -26 -36 -114 -176 -147 -235 -100 -178 -193 -415
-240 -613 -3 -9 -9 -36 -15 -60 -5 -23 -13 -58 -16 -78 -3 -20 -8 -46 -10 -58
-4 -21 -10 -55 -19 -119 -33 -238 -22 -606 26 -857 5 -30 12 -68 15 -83 18
-95 121 -419 136 -425 5 -2 8 -10 8 -17 0 -19 64 -153 124 -258 77 -136 81
-142 87 -147 3 -3 20 -27 39 -55 82 -121 240 -301 363 -412 136 -123 365 -284
503 -353 38 -19 71 -38 72 -42 2 -5 12 -8 23 -8 10 0 19 -4 19 -10 0 -5 5 -10
12 -10 6 0 43 -14 82 -31 118 -52 299 -118 328 -119 4 -1 26 -7 48 -15 22 -8
40 -12 40 -10 0 3 10 1 23 -4 26 -10 194 -45 267 -57 25 -3 52 -8 61 -9 167
-31 581 -36 804 -10 22 2 67 7 100 11 33 3 69 8 80 11 11 2 33 6 50 8 50 8
187 36 250 52 33 8 67 16 75 18 8 2 42 11 75 21 33 10 62 18 65 19 36 6 276
95 370 137 79 35 243 119 320 165 102 60 112 66 128 81 7 6 17 12 22 12 5 0
15 6 22 13 7 7 43 35 81 62 37 27 67 54 68 59 4 69 0 2139 -5 2143 -3 3 -299
6 -658 6 l-653 0 -1 -721 c0 -397 -2 -723 -5 -725 -18 -16 -240 -91 -299 -101
-14 -2 -52 -9 -85 -15 -150 -27 -403 -30 -555 -6 -52 8 -133 26 -150 32 -8 3
-24 7 -35 9 -85 11 -331 133 -439 218 -98 76 -276 272 -276 303 0 6 -7 16 -16
24 -19 15 -93 170 -122 254 -18 51 -43 148 -58 219 -25 125 -24 414 1 546 2
14 7 36 9 50 31 164 122 376 217 505 74 99 205 224 305 290 89 59 227 129 279
141 17 4 35 10 40 14 14 11 156 46 225 56 19 3 53 8 75 11 57 9 359 9 430 0
32 -4 91 -15 130 -24 38 -9 73 -16 78 -15 4 1 7 -2 7 -6 0 -4 8 -8 18 -9 59
-5 352 -142 352 -165 0 -4 5 -8 12 -8 27 0 165 -118 306 -262 l95 -97 56 53
c65 62 97 92 211 196 45 41 101 93 124 115 24 22 81 74 127 117 46 42 102 94
125 115 134 126 258 239 270 246 20 11 18 18 -19 59 -17 20 -51 58 -74 85
-106 123 -279 283 -383 353 -12 8 -34 25 -48 37 -15 13 -30 23 -34 23 -4 0
-33 18 -65 39 -102 68 -305 168 -448 221 -33 12 -69 26 -80 30 -23 10 -83 28
-111 35 -10 2 -53 14 -94 25 -41 11 -88 23 -105 26 -16 3 -39 7 -50 10 -142
30 -315 51 -492 60 -150 7 -264 10 -268 6z"/>
<path d="M2948 8005 c-4 -4 -44 -8 -90 -10 -84 -3 -192 -12 -238 -20 -14 -2
-45 -7 -70 -10 -40 -5 -119 -18 -175 -29 -101 -20 -382 -102 -401 -117 -6 -5
-19 -10 -30 -12 -10 -2 -41 -13 -68 -25 -27 -12 -51 -22 -53 -22 -11 0 -269
-133 -284 -146 -8 -8 -19 -14 -23 -14 -4 0 -46 -26 -94 -57 -220 -144 -462
-371 -618 -578 -46 -62 -84 -117 -84 -123 0 -6 -4 -12 -9 -14 -25 -9 -177
-303 -239 -458 -44 -114 -98 -294 -118 -395 -2 -11 -6 -31 -9 -45 -7 -36 -13
-77 -21 -129 -3 -25 -7 -57 -9 -71 -11 -73 -18 -200 -18 -325 0 -199 16 -382
48 -535 3 -14 7 -36 10 -50 11 -55 14 -72 20 -90 3 -10 8 -28 10 -40 5 -26 62
-207 74 -235 5 -11 16 -36 25 -57 9 -20 16 -39 16 -43 0 -13 104 -220 115
-227 5 -4 6 -8 2 -8 -5 0 1 -13 12 -29 12 -16 21 -34 21 -40 0 -6 5 -11 10
-11 6 0 10 -7 10 -15 0 -8 5 -15 10 -15 6 0 10 -5 10 -11 0 -12 60 -103 72
-107 4 -2 8 -10 8 -17 0 -7 3 -15 8 -17 4 -1 23 -24 43 -50 19 -26 55 -70 80
-99 88 -106 286 -293 369 -349 12 -8 28 -20 35 -27 18 -17 181 -124 251 -165
54 -32 247 -127 299 -148 11 -4 36 -15 55 -23 48 -21 170 -62 260 -87 41 -11
91 -25 110 -30 19 -6 46 -12 60 -14 14 -3 50 -10 80 -16 30 -6 66 -12 80 -14
76 -12 109 -17 145 -21 22 -2 72 -7 110 -11 138 -14 482 -8 645 12 98 11 296
47 365 66 22 6 47 12 55 13 8 2 15 4 15 5 0 1 10 3 23 6 40 7 267 87 287 101
11 7 25 13 31 13 13 0 191 86 264 127 42 24 172 108 195 125 106 81 194 156
253 212 40 39 77 73 83 74 5 2 9 8 9 12 0 5 18 27 40 49 22 22 40 42 40 46 0
3 10 16 23 29 12 13 33 38 47 55 14 17 31 39 39 47 15 17 25 7 -184 199 -60
55 -121 111 -135 125 -82 77 -245 227 -260 240 -19 17 -205 188 -284 262 -28
26 -54 48 -57 48 -3 0 -30 -28 -59 -62 -29 -35 -63 -72 -74 -84 -12 -12 -37
-39 -57 -60 -55 -60 -160 -149 -225 -191 -10 -7 -35 -23 -54 -36 -53 -34 -165
-86 -256 -118 -77 -27 -97 -32 -161 -44 -16 -3 -38 -8 -51 -10 -99 -23 -366
-23 -497 0 -130 23 -271 68 -384 124 -126 62 -131 65 -131 73 0 5 -7 8 -15 8
-8 0 -15 4 -15 9 0 5 -6 11 -13 13 -19 4 -89 62 -160 133 -80 79 -163 192
-214 291 -44 83 -107 244 -97 244 4 0 2 6 -3 12 -12 17 -31 99 -47 213 -12 83
-14 362 -3 410 3 11 8 40 11 65 11 79 39 191 63 250 4 8 7 17 8 20 17 50 88
194 97 198 4 2 8 10 8 18 0 8 5 14 10 14 6 0 10 5 10 10 0 18 80 121 145 187
71 73 194 173 212 173 7 0 13 4 13 8 0 14 198 108 285 136 182 58 309 75 515
71 80 -2 156 -6 170 -10 14 -3 39 -7 55 -10 17 -2 45 -9 63 -14 17 -5 32 -8
32 -6 0 9 181 -59 254 -96 78 -39 194 -112 246 -154 43 -34 223 -217 269 -272
24 -29 46 -53 50 -53 3 0 31 24 62 53 31 28 98 90 148 137 51 47 109 101 130
120 21 19 89 82 152 140 63 58 143 132 179 166 36 33 85 79 110 101 25 23 69
64 99 91 l54 50 -68 84 c-76 92 -275 294 -344 348 -24 19 -49 40 -55 45 -26
23 -204 145 -212 145 -3 0 -18 9 -34 20 -43 31 -235 124 -350 171 -100 40
-301 104 -358 113 -15 2 -27 5 -27 6 0 1 -7 3 -15 5 -29 6 -85 17 -105 20 -11
2 -44 8 -73 14 -29 6 -56 10 -60 10 -4 -1 -9 0 -12 1 -3 1 -23 4 -45 6 -22 2
-56 6 -75 8 -92 13 -365 20 -381 10 -4 -2 -9 1 -11 7 -2 5 -6 7 -10 4z"/>
</g>
</svg>
